<svg xmlns:dc="http://purl.org/dc/elements/1.1/" xmlns:cc="http://creativecommons.org/ns#" xmlns:rdf="http://www.w3.org/1999/02/22-rdf-syntax-ns#" xmlns:svg="http://www.w3.org/2000/svg" xmlns="http://www.w3.org/2000/svg" xmlns:xlink="http://www.w3.org/1999/xlink" id="svg47440" viewBox="0 0 1024 768" height="768px" width="1024px" version="1.1">
  <metadata id="metadata47446">
    <rdf:rdf>
      <cc:work rdf:about="">
        <dc:format>image/svg+xml</dc:format>
        <dc:type rdf:resource="http://purl.org/dc/dcmitype/StillImage"/>
      </cc:work>
    </rdf:rdf>
  </metadata>
  <defs id="defs47444"/>
  <linearGradient spreadMethod="pad" y2="30%" x2="-10%" y1="120%" x1="30%" id="3d_gradient2-logo-cfd19cec-eb53-4105-a013-d518ff620f31">
    <stop id="stop47421" stop-opacity="1" stop-color="#ffffff" offset="0%"/>
    <stop id="stop47423" stop-opacity="1" stop-color="#000000" offset="100%"/>
  </linearGradient>
  <linearGradient gradientTransform="rotate(-30)" spreadMethod="pad" y2="30%" x2="-10%" y1="120%" x1="30%" id="3d_gradient3-logo-cfd19cec-eb53-4105-a013-d518ff620f31">
    <stop id="stop47426" stop-opacity="1" stop-color="#ffffff" offset="0%"/>
    <stop id="stop47428" stop-opacity="1" stop-color="#cccccc" offset="50%"/>
    <stop id="stop47430" stop-opacity="1" stop-color="#000000" offset="100%"/>
  </linearGradient>
  <g id="logo-group">
    <image xlink:href="" id="container" x="272" y="144" width="480" height="480" style="display: none;" transform="translate(0 0)"/>
    <g id="logo-center" transform="translate(0 0) ">
      <image xlink:href="" id="icon_container" style="display: none;" x="0" y="0"/>
      <g id="slogan" style="font-style:normal;font-weight:400;font-size:32px;line-height:1;font-family:Karla;font-variant-ligatures:none;text-align:center;text-anchor:middle" transform="translate(0 0)"/>
      <g id="title" style="font-style:normal;font-weight:normal;font-size:72px;line-height:1;font-family:'Brandmark Sans 23 Spectrum';font-variant-ligatures:normal;text-align:center;text-anchor:middle" transform="translate(0 0)">
        <g id="path47449" aria-label="C" transform="translate(0 312.436) translate(257.36240750000013 24.476) scale(2) translate(-423.83446 51.048)"> <path class="c1" d="M121.93185,110.54034l-1.50743,2.12076c0,0-3.10117-1.45291-4.57571-2.14051 c-2.82216,4.21193-7.68439,7.14291-12.62234,7.14291c-6.75949,0-11.08378-5.47942-9.65891-12.23869 c1.42487-6.75905,8.0592-12.23846,14.81847-12.23846c4.49249,0,7.89652,2.42791,9.26488,6.0359l13.97504-5.062 c-0.89113-3.29355-2.53896-6.19981-4.79867-8.54395l0.00331-0.00066l-5.56374-5.56374l-0.03686,1.54495 c-2.89301-1.39309-6.24164-2.17715-9.94212-2.17715c-14.36243,0-28.45953,11.64291-31.48697,26.00512 c-1.17036,5.55227-0.50859,10.69373,1.56548,14.91759l-1.89461-0.41411l5.54984,5.54962 c0.00861,0.00883,0.01744,0.01765,0.02605,0.02627l0.01678,0.01678v-0.00089c3.71196,3.69231,8.99294,5.90997,15.25996,5.90997 c10.60875,0,21.06739-6.35608,27.03244-15.46479C126.68901,115.63336,121.93185,110.54034,121.93185,110.54034z" transform="translate(293.460299 -119.61794)" stroke-width="0" stroke-linejoin="miter" stroke-miterlimit="2" fill="#4ae4ff" stroke="#4ae4ff"/> <path class="c2" d="M116.50695,105.11545l-1.50743,2.12076c0,0-3.10117-1.45291-4.57571-2.14051 c-2.82216,4.21193-7.68439,7.14291-12.62234,7.14291c-6.75949,0-11.08378-5.47942-9.65891-12.23869 c1.42487-6.75905,8.0592-12.23847,14.81847-12.23847c4.49249,0,7.89652,2.42792,9.26488,6.03591l13.97503-5.062 c-0.89113-3.29355-2.53895-6.19981-4.79866-8.54395l0.00331-0.00066l-5.56374-5.56374l-0.03687,1.54496 c-2.89301-1.39309-6.24163-2.17715-9.94212-2.17715c-14.36243,0-28.45952,11.64291-31.48697,26.00512 c-1.17036,5.55227-0.50858,10.69373,1.56549,14.91759l-1.89461-0.41411l5.54984,5.54961 c0.00861,0.00883,0.01743,0.01766,0.02605,0.02627l0.01678,0.01678v-0.00088c3.71196,3.69231,8.99294,5.90997,15.25996,5.90997 c10.60874,0,21.06739-6.35609,27.03244-15.46481C121.26411,110.20847,116.50695,105.11545,116.50695,105.11545z" transform="translate(293.460299 -119.61794)" stroke-width="0" stroke-linejoin="miter" stroke-miterlimit="2" fill="#3394a3" stroke="#3394a3"/> <path class="c3" d="M92.37643,106.81365c-6.75927,0-11.08358-5.47936-9.65876-12.23858 c1.42482-6.75916,8.05914-12.23853,14.81841-12.23853c4.49249,0,7.89664,2.42792,9.26487,6.03596l13.97499-5.06206 c-2.35957-8.72126-10.01128-14.7405-20.33792-14.7405c-14.36243,0-28.45958,11.64291-31.48699,26.00512 c-3.02742,14.36227,6.16125,26.00518,20.52347,26.00518c10.60874,0,21.0674-6.35603,27.03236-15.46481 c-2.06573-1.02677-7.22989-3.44955-11.5079-5.4446C102.1768,103.88273,97.31459,106.81365,92.37643,106.81365z" transform="translate(293.460299 -119.61794)" stroke-width="0" stroke-linejoin="miter" stroke-miterlimit="2" fill="#1c4448" stroke="#1c4448"/> </g>
        <g id="path47451" aria-label="L" transform="translate(0 312.436) translate(341.81659250000007 25.772000000000006) scale(2) translate(-460.13725 50.184)"> <polygon class="c1" points="102.79379,117.2114 110.56802,80.33066 105.14313,74.90576 103.99918,80.33066 97.02366,80.33066 87.58775,125.09443 81.01937,125.09424 86.44427,130.51913 98.62247,130.51913 99.98863,130.51913 121.60037,130.51913 124.40553,117.2114 118.98063,111.78651 117.83787,117.2114 " transform="translate(337.54278 -119.66487)" stroke-width="0" stroke-linejoin="miter" stroke-miterlimit="2" fill="#4ae4ff" stroke="#4ae4ff"/> <polygon class="c2" points="97.3689,111.78651 105.14313,74.90576 99.71822,69.48087 98.57428,74.90576 91.59875,74.90576 82.16286,119.66953 75.59447,119.66934 81.01937,125.09424 93.19758,125.09424 94.56374,125.09424 116.17548,125.09424 118.98063,111.78651 113.55573,106.36161 112.41296,111.78651 " transform="translate(337.54278 -119.66487)" stroke-width="0" stroke-linejoin="miter" stroke-miterlimit="2" fill="#3394a3" stroke="#3394a3"/> <polygon class="c3" points="91.94399,106.36161 99.71822,69.48087 86.17386,69.48087 75.59447,119.66934 87.77267,119.66934 89.13883,119.66934 110.75057,119.66934 113.55573,106.36161 " transform="translate(337.54278 -119.66487)" stroke-width="0" stroke-linejoin="miter" stroke-miterlimit="2" fill="#1c4448" stroke="#1c4448"/> </g>
        <g id="path47453" aria-label="O" transform="translate(0 312.436) translate(410.3155325 24.476) scale(2) translate(-495.80321 51.048)"> <path class="c1" d="M126.5769,85.76066l0.00552-0.00497l-0.18233-0.18222c-0.13509-0.1395-0.27239-0.2768-0.4119-0.41212 l-5.32645-5.32645l0.45009,1.8849c-2.95107-1.47322-6.39329-2.30011-10.2048-2.30011 c-14.36243,0-28.45953,11.64291-31.48697,26.00512c-1.19818,5.68493-0.47636,10.93986,1.71647,15.21934l-1.64937-0.3427 l4.77041,4.77029c0.25959,0.2757,0.52734,0.54346,0.80371,0.80372l0.12957,0.12968l0.00221-0.00541 c3.67907,3.40115,8.76248,5.4303,14.75049,5.4303c14.36221,0,28.45953-11.64291,31.48696-26.00523 C133.08673,97.56715,131.08064,90.52908,126.5769,85.76066z M117.66409,105.42481 c-1.42487,6.75927-8.05943,12.23869-14.81847,12.23869c-6.75927,0-11.08356-5.47942-9.65891-12.23869 c1.42487-6.75905,8.0592-12.23846,14.81847-12.23846C114.76423,93.18635,119.08875,98.66576,117.66409,105.42481z" transform="translate(385.809729 -119.61795)" stroke-width="0" stroke-linejoin="miter" stroke-miterlimit="2" fill="#4ae4ff" stroke="#4ae4ff"/> <path class="c2" d="M121.15199,80.33576l0.00552-0.00497l-0.18233-0.18222c-0.13509-0.1395-0.27239-0.27681-0.4119-0.41212 L115.23683,74.41l0.45009,1.8849c-2.95107-1.47321-6.39328-2.3001-10.2048-2.3001c-14.36243,0-28.45953,11.64291-31.48697,26.00512 c-1.19817,5.68493-0.47636,10.93986,1.71648,15.21934l-1.64937-0.3427l4.7704,4.77029 c0.25959,0.2757,0.52735,0.54346,0.80372,0.80371l0.12957,0.12968l0.00221-0.0054 c3.67906,3.40115,8.76248,5.43031,14.75048,5.43031c14.36221,0,28.45953-11.64291,31.48698-26.00523 C127.66183,92.14224,125.65575,85.10418,121.15199,80.33576z M112.23919,99.99992 c-1.42487,6.75927-8.05943,12.23869-14.81847,12.23869c-6.75927,0-11.08356-5.47942-9.65891-12.23869 c1.42487-6.75905,8.0592-12.23847,14.81847-12.23847C109.33933,87.76144,113.66384,93.24087,112.23919,99.99992z" transform="translate(385.809729 -119.61795)" stroke-width="0" stroke-linejoin="miter" stroke-miterlimit="2" fill="#3394a3" stroke="#3394a3"/> <path class="c3" d="M100.05724,68.56995c-14.36232,0-28.45947,11.64291-31.48689,26.00512 c-3.02742,14.36227,6.16125,26.00518,20.52347,26.00518s28.45936-11.64291,31.48689-26.00518 C123.60812,80.21287,114.41956,68.56995,100.05724,68.56995z M106.81417,94.57507 c-1.42483,6.75922-8.05924,12.23858-14.81841,12.23858c-6.75927,0-11.08358-5.47936-9.65876-12.23858 c1.42482-6.75916,8.05914-12.23853,14.81841-12.23853C103.91446,82.33655,108.23888,87.81592,106.81417,94.57507z" transform="translate(385.809729 -119.61795)" stroke-width="0" stroke-linejoin="miter" stroke-miterlimit="2" fill="#1c4448" stroke="#1c4448"/> </g>
        <g id="path47455" aria-label="C" transform="translate(0 312.436) translate(500.71397750000006 24.476) scale(2) translate(-535.06884 51.048)"> <path class="c1" d="M121.93185,110.54034l-1.50743,2.12076c0,0-3.10117-1.45291-4.57571-2.14051 c-2.82216,4.21193-7.68439,7.14291-12.62234,7.14291c-6.75949,0-11.08378-5.47942-9.65891-12.23869 c1.42487-6.75905,8.0592-12.23846,14.81847-12.23846c4.49249,0,7.89652,2.42791,9.26488,6.0359l13.97504-5.062 c-0.89113-3.29355-2.53896-6.19981-4.79867-8.54395l0.00331-0.00066l-5.56374-5.56374l-0.03686,1.54495 c-2.89301-1.39309-6.24164-2.17715-9.94212-2.17715c-14.36243,0-28.45953,11.64291-31.48697,26.00512 c-1.17036,5.55227-0.50859,10.69373,1.56548,14.91759l-1.89461-0.41411l5.54984,5.54962 c0.00861,0.00883,0.01744,0.01765,0.02605,0.02627l0.01678,0.01678v-0.00089c3.71196,3.69231,8.99294,5.90997,15.25996,5.90997 c10.60875,0,21.06739-6.35608,27.03244-15.46479C126.68901,115.63336,121.93185,110.54034,121.93185,110.54034z" transform="translate(440.694679 -119.61794)" stroke-width="0" stroke-linejoin="miter" stroke-miterlimit="2" fill="#4ae4ff" stroke="#4ae4ff"/> <path class="c2" d="M116.50695,105.11545l-1.50743,2.12076c0,0-3.10117-1.45291-4.57571-2.14051 c-2.82216,4.21193-7.68439,7.14291-12.62234,7.14291c-6.75949,0-11.08378-5.47942-9.65891-12.23869 c1.42487-6.75905,8.0592-12.23847,14.81847-12.23847c4.49249,0,7.89652,2.42792,9.26488,6.03591l13.97503-5.062 c-0.89113-3.29355-2.53895-6.19981-4.79866-8.54395l0.00331-0.00066l-5.56374-5.56374l-0.03687,1.54496 c-2.89301-1.39309-6.24163-2.17715-9.94212-2.17715c-14.36243,0-28.45952,11.64291-31.48697,26.00512 c-1.17036,5.55227-0.50858,10.69373,1.56549,14.91759l-1.89461-0.41411l5.54984,5.54961 c0.00861,0.00883,0.01743,0.01766,0.02605,0.02627l0.01678,0.01678v-0.00088c3.71196,3.69231,8.99294,5.90997,15.25996,5.90997 c10.60874,0,21.06739-6.35609,27.03244-15.46481C121.26411,110.20847,116.50695,105.11545,116.50695,105.11545z" transform="translate(440.694679 -119.61794)" stroke-width="0" stroke-linejoin="miter" stroke-miterlimit="2" fill="#3394a3" stroke="#3394a3"/> <path class="c3" d="M92.37643,106.81365c-6.75927,0-11.08358-5.47936-9.65876-12.23858 c1.42482-6.75916,8.05914-12.23853,14.81841-12.23853c4.49249,0,7.89664,2.42792,9.26487,6.03596l13.97499-5.06206 c-2.35957-8.72126-10.01128-14.7405-20.33792-14.7405c-14.36243,0-28.45958,11.64291-31.48699,26.00512 c-3.02742,14.36227,6.16125,26.00518,20.52347,26.00518c10.60874,0,21.0674-6.35603,27.03236-15.46481 c-2.06573-1.02677-7.22989-3.44955-11.5079-5.4446C102.1768,103.88273,97.31459,106.81365,92.37643,106.81365z" transform="translate(440.694679 -119.61794)" stroke-width="0" stroke-linejoin="miter" stroke-miterlimit="2" fill="#1c4448" stroke="#1c4448"/> </g>
        <g id="path47457" aria-label="K" transform="translate(0 312.436) translate(585.1681475 25.772000000000006) scale(2) translate(-570.37162 50.184)"> <polygon class="c1" points="132.24985,80.33066 126.82495,74.90576 121.77264,80.33066 115.99326,80.33066 98.842,98.74532 102.72349,80.33066 97.29858,74.90576 96.15475,80.33066 89.17934,80.33066 79.74344,125.09443 73.17505,125.09424 78.59995,130.51913 92.14432,130.51913 94.08639,121.30513 99.42233,115.57627 104.44537,125.09272 101.88467,125.09424 107.30957,130.51913 123.56617,130.51913 109.79864,104.43565 " transform="translate(492.62147 -119.66487)" stroke-width="0" stroke-linejoin="miter" stroke-miterlimit="2" fill="#4ae4ff" stroke="#4ae4ff"/> <polygon class="c2" points="126.82495,74.90576 121.40005,69.48087 116.34774,74.90576 110.56835,74.90576 93.4171,93.32042 97.29858,74.90576 91.87369,69.48087 90.72985,74.90576 83.75444,74.90576 74.31854,119.66953 67.75015,119.66934 73.17505,125.09424 86.71942,125.09424 88.66148,115.88023 93.99743,110.15137 99.02047,119.66782 96.45978,119.66934 101.88467,125.09424 118.14127,125.09424 104.37373,99.01076 " transform="translate(492.62147 -119.66487)" stroke-width="0" stroke-linejoin="miter" stroke-miterlimit="2" fill="#3394a3" stroke="#3394a3"/> <polygon class="c3" points="121.40005,69.48087 105.14346,69.48087 87.9922,87.89552 91.87369,69.48087 78.32954,69.48087 67.75015,119.66934 81.29452,119.66934 83.23659,110.45534 88.57253,104.72648 96.45978,119.66934 112.71637,119.66934 98.94884,93.58585 " transform="translate(492.62147 -119.66487)" stroke-width="0" stroke-linejoin="miter" stroke-miterlimit="2" fill="#1c4448" stroke="#1c4448"/> </g>
        <g id="path47459" aria-label="N" transform="translate(0 312.436) translate(664.7935924999999 25.772000000000006) scale(2) translate(-608.45525 50.184)"> <polygon class="c1" points="120.43818,80.33066 114.6378,107.84718 100.99101,80.33066 95.56611,74.90576 98.25622,80.33066 87.44665,80.33066 78.01074,125.09443 71.44235,125.09424 76.86726,130.51913 90.41162,130.51913 96.21178,103.00261 107.17072,125.09918 104.43389,125.09424 109.85879,130.51913 123.40315,130.51913 133.98254,80.33066 128.55765,74.90576 127.41493,80.33066 " transform="translate(542.43779 -119.66487)" stroke-width="0" stroke-linejoin="miter" stroke-miterlimit="2" fill="#4ae4ff" stroke="#4ae4ff"/> <polygon class="c2" points="115.01328,74.90576 109.2129,102.42229 95.56611,74.90576 90.14121,69.48087 92.83132,74.90576 82.02174,74.90576 72.58585,119.66953 66.01746,119.66934 71.44235,125.09424 84.98672,125.09424 90.78688,97.57771 101.74583,119.67429 99.00899,119.66934 104.43389,125.09424 117.97826,125.09424 128.55765,74.90576 123.13274,69.48087 121.99004,74.90576 " transform="translate(542.43779 -119.66487)" stroke-width="0" stroke-linejoin="miter" stroke-miterlimit="2" fill="#3394a3" stroke="#3394a3"/> <polygon class="c3" points="109.58838,69.48087 103.788,96.99739 90.14121,69.48087 76.59685,69.48087 66.01746,119.66934 79.56182,119.66934 85.36198,92.15282 99.00899,119.66934 112.55335,119.66934 123.13274,69.48087 " transform="translate(542.43779 -119.66487)" stroke-width="0" stroke-linejoin="miter" stroke-miterlimit="2" fill="#1c4448" stroke="#1c4448"/> </g>
            </g>
      <image xlink:href="" id="icon" style="display: none;" x="0" y="0"/>
    </g>
  </g>
</svg>